<svg width="25" viewBox="0 0 32 20" fill="none" xmlns="http://www.w3.org/2000/svg">
<path d="M32 17.8999H0V19.3374H32V17.8999Z" fill="#CB001C"/>
<path d="M32 16.4624H0V17.8999H32V16.4624Z" fill="white"/>
<path d="M32 15.0249H0V16.4624H32V15.0249Z" fill="#CB001C"/>
<path d="M32 13.5874H0V15.0249H32V13.5874Z" fill="white"/>
<path d="M32 12.1562H0V13.5938H32V12.1562Z" fill="#CB001C"/>
<path d="M32 10.7188H0V12.1562H32V10.7188Z" fill="white"/>
<path d="M32 9.28125H0V10.7188H32V9.28125Z" fill="#CB001C"/>
<path d="M32 7.84375H0V9.28125H32V7.84375Z" fill="white"/>
<path d="M32 6.41235H0V7.84985H32V6.41235Z" fill="#CB001C"/>
<path d="M32 4.97485H0V6.41235H32V4.97485Z" fill="white"/>
<path d="M32 3.53735H0V4.97485H32V3.53735Z" fill="#CB001C"/>
<path d="M32 2.09985H0V3.53735H32V2.09985Z" fill="white"/>
<path d="M32 0.668701H0V2.1062H32V0.668701Z" fill="#CB001C"/>
<path d="M14.6125 0.668701H0V10.7187H14.6125V0.668701Z" fill="#2A3560"/>
<path d="M1.31876 1.7749L1.44376 2.15615H1.83751L1.51876 2.3874L1.63751 2.76865L1.31876 2.53115L0.993762 2.76865L1.11876 2.3874L0.793762 2.15615H1.19376L1.31876 1.7749Z" fill="white"/>
<path d="M1.31876 3.44995L1.44376 3.8312H1.83751L1.51876 4.0687L1.63751 4.4437L1.31876 4.21245L0.993762 4.4437L1.11876 4.0687L0.793762 3.8312H1.19376L1.31876 3.44995Z" fill="white"/>
<path d="M1.31876 5.1311L1.44376 5.51235H1.83751L1.51876 5.7436L1.63751 6.12485L1.31876 5.88735L0.993762 6.12485L1.11876 5.7436L0.793762 5.51235H1.19376L1.31876 5.1311Z" fill="white"/>
<path d="M1.31876 6.80615L1.44376 7.1874H1.83751L1.51876 7.4249L1.63751 7.7999L1.31876 7.56865L0.993762 7.7999L1.11876 7.4249L0.793762 7.1874H1.19376L1.31876 6.80615Z" fill="white"/>
<path d="M1.31876 8.48755L1.44376 8.86255H1.83751L1.51876 9.10005L1.63751 9.4813L1.31876 9.2438L0.993762 9.4813L1.11876 9.10005L0.793762 8.86255H1.19376L1.31876 8.48755Z" fill="white"/>
<path d="M2.48749 2.65625L2.61249 3.0375H3.00624L2.68749 3.275L2.80624 3.65L2.48749 3.41875L2.16249 3.65L2.28749 3.275L1.96249 3.0375H2.36249L2.48749 2.65625Z" fill="white"/>
<path d="M2.48749 4.3374L2.61249 4.7124H3.00624L2.68749 4.9499L2.80624 5.33115L2.48749 5.09365L2.16249 5.33115L2.28749 4.9499L1.96249 4.7124H2.36249L2.48749 4.3374Z" fill="white"/>
<path d="M2.48749 6.01245L2.61249 6.3937H3.00624L2.68749 6.6312L2.80624 7.0062L2.48749 6.77495L2.16249 7.0062L2.28749 6.6312L1.96249 6.3937H2.36249L2.48749 6.01245Z" fill="white"/>
<path d="M2.48749 7.6936L2.61249 8.0686H3.00624L2.68749 8.3061L2.80624 8.68735L2.48749 8.44985L2.16249 8.68735L2.28749 8.3061L1.96249 8.0686H2.36249L2.48749 7.6936Z" fill="white"/>
<path d="M3.66874 1.7749L3.79374 2.15615H4.19374L3.86874 2.3874L3.99374 2.76865L3.66874 2.53115L3.34374 2.76865L3.46874 2.3874L3.14374 2.15615H3.54374L3.66874 1.7749Z" fill="white"/>
<path d="M3.66874 3.44995L3.79374 3.8312H4.19374L3.86874 4.0687L3.99374 4.4437L3.66874 4.21245L3.34374 4.4437L3.46874 4.0687L3.14374 3.8312H3.54374L3.66874 3.44995Z" fill="white"/>
<path d="M3.66874 5.1311L3.79374 5.51235H4.19374L3.86874 5.7436L3.99374 6.12485L3.66874 5.88735L3.34374 6.12485L3.46874 5.7436L3.14374 5.51235H3.54374L3.66874 5.1311Z" fill="white"/>
<path d="M3.66874 6.80615L3.79374 7.1874H4.19374L3.86874 7.4249L3.99374 7.7999L3.66874 7.56865L3.34374 7.7999L3.46874 7.4249L3.14374 7.1874H3.54374L3.66874 6.80615Z" fill="white"/>
<path d="M3.66874 8.48755L3.79374 8.86255H4.19374L3.86874 9.10005L3.99374 9.4813L3.66874 9.2438L3.34374 9.4813L3.46874 9.10005L3.14374 8.86255H3.54374L3.66874 8.48755Z" fill="white"/>
<path d="M4.8375 2.65625L4.9625 3.0375H5.3625L5.0375 3.275L5.1625 3.65L4.8375 3.41875L4.5125 3.65L4.6375 3.275L4.3125 3.0375H4.7125L4.8375 2.65625Z" fill="white"/>
<path d="M4.8375 4.3374L4.9625 4.7124H5.3625L5.0375 4.9499L5.1625 5.33115L4.8375 5.09365L4.5125 5.33115L4.6375 4.9499L4.3125 4.7124H4.7125L4.8375 4.3374Z" fill="white"/>
<path d="M4.8375 6.01245L4.9625 6.3937H5.3625L5.0375 6.6312L5.1625 7.0062L4.8375 6.77495L4.5125 7.0062L4.6375 6.6312L4.3125 6.3937H4.7125L4.8375 6.01245Z" fill="white"/>
<path d="M4.8375 7.6936L4.9625 8.0686H5.3625L5.0375 8.3061L5.1625 8.68735L4.8375 8.44985L4.5125 8.68735L4.6375 8.3061L4.3125 8.0686H4.7125L4.8375 7.6936Z" fill="white"/>
<path d="M6.01875 1.7749L6.14375 2.15615H6.54375L6.21875 2.3874L6.34375 2.76865L6.01875 2.53115L5.7 2.76865L5.825 2.3874L5.5 2.15615H5.9L6.01875 1.7749Z" fill="white"/>
<path d="M6.01875 3.44995L6.14375 3.8312H6.54375L6.21875 4.0687L6.34375 4.4437L6.01875 4.21245L5.7 4.4437L5.825 4.0687L5.5 3.8312H5.9L6.01875 3.44995Z" fill="white"/>
<path d="M6.01875 5.1311L6.14375 5.51235H6.54375L6.21875 5.7436L6.34375 6.12485L6.01875 5.88735L5.7 6.12485L5.825 5.7436L5.5 5.51235H5.9L6.01875 5.1311Z" fill="white"/>
<path d="M6.01875 6.80615L6.14375 7.1874H6.54375L6.21875 7.4249L6.34375 7.7999L6.01875 7.56865L5.7 7.7999L5.825 7.4249L5.5 7.1874H5.9L6.01875 6.80615Z" fill="white"/>
<path d="M6.01875 8.48755L6.14375 8.86255H6.54375L6.21875 9.10005L6.34375 9.4813L6.01875 9.2438L5.7 9.4813L5.825 9.10005L5.5 8.86255H5.9L6.01875 8.48755Z" fill="white"/>
<path d="M7.18751 2.65625L7.31251 3.0375H7.71251L7.38751 3.275L7.51251 3.65L7.18751 3.41875L6.86876 3.65L6.98751 3.275L6.66876 3.0375H7.06876L7.18751 2.65625Z" fill="white"/>
<path d="M7.18751 4.3374L7.31251 4.7124H7.71251L7.38751 4.9499L7.51251 5.33115L7.18751 5.09365L6.86876 5.33115L6.98751 4.9499L6.66876 4.7124H7.06876L7.18751 4.3374Z" fill="white"/>
<path d="M7.18751 6.01245L7.31251 6.3937H7.71251L7.38751 6.6312L7.51251 7.0062L7.18751 6.77495L6.86876 7.0062L6.98751 6.6312L6.66876 6.3937H7.06876L7.18751 6.01245Z" fill="white"/>
<path d="M7.18751 7.6936L7.31251 8.0686H7.71251L7.38751 8.3061L7.51251 8.68735L7.18751 8.44985L6.86876 8.68735L6.98751 8.3061L6.66876 8.0686H7.06876L7.18751 7.6936Z" fill="white"/>
<path d="M8.37501 1.7749L8.50001 2.15615H8.89376L8.57501 2.3874L8.69376 2.76865L8.37501 2.53115L8.05001 2.76865L8.17501 2.3874L7.85001 2.15615H8.25001L8.37501 1.7749Z" fill="white"/>
<path d="M8.37501 3.44995L8.50001 3.8312H8.89376L8.57501 4.0687L8.69376 4.4437L8.37501 4.21245L8.05001 4.4437L8.17501 4.0687L7.85001 3.8312H8.25001L8.37501 3.44995Z" fill="white"/>
<path d="M8.37501 5.1311L8.50001 5.51235H8.89376L8.57501 5.7436L8.69376 6.12485L8.37501 5.88735L8.05001 6.12485L8.17501 5.7436L7.85001 5.51235H8.25001L8.37501 5.1311Z" fill="white"/>
<path d="M8.37501 6.80615L8.50001 7.1874H8.89376L8.57501 7.4249L8.69376 7.7999L8.37501 7.56865L8.05001 7.7999L8.17501 7.4249L7.85001 7.1874H8.25001L8.37501 6.80615Z" fill="white"/>
<path d="M8.37501 8.48755L8.50001 8.86255H8.89376L8.57501 9.10005L8.69376 9.4813L8.37501 9.2438L8.05001 9.4813L8.17501 9.10005L7.85001 8.86255H8.25001L8.37501 8.48755Z" fill="white"/>
<path d="M9.54374 2.65625L9.66249 3.0375H10.0625L9.74374 3.275L9.86249 3.65L9.54374 3.41875L9.21874 3.65L9.34374 3.275L9.01874 3.0375H9.41874L9.54374 2.65625Z" fill="white"/>
<path d="M9.54374 4.3374L9.66249 4.7124H10.0625L9.74374 4.9499L9.86249 5.33115L9.54374 5.09365L9.21874 5.33115L9.34374 4.9499L9.01874 4.7124H9.41874L9.54374 4.3374Z" fill="white"/>
<path d="M9.54374 6.01245L9.66249 6.3937H10.0625L9.74374 6.6312L9.86249 7.0062L9.54374 6.77495L9.21874 7.0062L9.34374 6.6312L9.01874 6.3937H9.41874L9.54374 6.01245Z" fill="white"/>
<path d="M9.54374 7.6936L9.66249 8.0686H10.0625L9.74374 8.3061L9.86249 8.68735L9.54374 8.44985L9.21874 8.68735L9.34374 8.3061L9.01874 8.0686H9.41874L9.54374 7.6936Z" fill="white"/>
<path d="M10.725 1.7749L10.85 2.15615H11.25L10.925 2.3874L11.05 2.76865L10.725 2.53115L10.4 2.76865L10.525 2.3874L10.2 2.15615H10.6L10.725 1.7749Z" fill="white"/>
<path d="M10.725 3.44995L10.85 3.8312H11.25L10.925 4.0687L11.05 4.4437L10.725 4.21245L10.4 4.4437L10.525 4.0687L10.2 3.8312H10.6L10.725 3.44995Z" fill="white"/>
<path d="M10.725 5.1311L10.85 5.51235H11.25L10.925 5.7436L11.05 6.12485L10.725 5.88735L10.4 6.12485L10.525 5.7436L10.2 5.51235H10.6L10.725 5.1311Z" fill="white"/>
<path d="M10.725 6.80615L10.85 7.1874H11.25L10.925 7.4249L11.05 7.7999L10.725 7.56865L10.4 7.7999L10.525 7.4249L10.2 7.1874H10.6L10.725 6.80615Z" fill="white"/>
<path d="M10.725 8.48755L10.85 8.86255H11.25L10.925 9.10005L11.05 9.4813L10.725 9.2438L10.4 9.4813L10.525 9.10005L10.2 8.86255H10.6L10.725 8.48755Z" fill="white"/>
<path d="M11.8937 2.65625L12.0187 3.0375H12.4187L12.0937 3.275L12.2187 3.65L11.8937 3.41875L11.5687 3.65L11.6937 3.275L11.3687 3.0375H11.7687L11.8937 2.65625Z" fill="white"/>
<path d="M11.8937 4.3374L12.0187 4.7124H12.4187L12.0937 4.9499L12.2187 5.33115L11.8937 5.09365L11.5687 5.33115L11.6937 4.9499L11.3687 4.7124H11.7687L11.8937 4.3374Z" fill="white"/>
<path d="M11.8937 6.01245L12.0187 6.3937H12.4187L12.0937 6.6312L12.2187 7.0062L11.8937 6.77495L11.5687 7.0062L11.6937 6.6312L11.3687 6.3937H11.7687L11.8937 6.01245Z" fill="white"/>
<path d="M11.8937 7.6936L12.0187 8.0686H12.4187L12.0937 8.3061L12.2187 8.68735L11.8937 8.44985L11.5687 8.68735L11.6937 8.3061L11.3687 8.0686H11.7687L11.8937 7.6936Z" fill="white"/>
<path d="M13.075 1.7749L13.2 2.15615H13.6L13.275 2.3874L13.4 2.76865L13.075 2.53115L12.7562 2.76865L12.875 2.3874L12.5562 2.15615H12.9562L13.075 1.7749Z" fill="white"/>
<path d="M13.075 3.44995L13.2 3.8312H13.6L13.275 4.0687L13.4 4.4437L13.075 4.21245L12.7562 4.4437L12.875 4.0687L12.5562 3.8312H12.9562L13.075 3.44995Z" fill="white"/>
<path d="M13.075 5.1311L13.2 5.51235H13.6L13.275 5.7436L13.4 6.12485L13.075 5.88735L12.7562 6.12485L12.875 5.7436L12.5562 5.51235H12.9562L13.075 5.1311Z" fill="white"/>
<path d="M13.075 6.80615L13.2 7.1874H13.6L13.275 7.4249L13.4 7.7999L13.075 7.56865L12.7562 7.7999L12.875 7.4249L12.5562 7.1874H12.9562L13.075 6.80615Z" fill="white"/>
<path d="M13.075 8.48755L13.2 8.86255H13.6L13.275 9.10005L13.4 9.4813L13.075 9.2438L12.7562 9.4813L12.875 9.10005L12.5562 8.86255H12.9562L13.075 8.48755Z" fill="white"/>
</svg>
