<svg width="156" height="32" viewBox="0 0 156 32" fill="none" xmlns="http://www.w3.org/2000/svg">
<path d="M77.2007 4.70898H79.2877V17.6024C81.8137 15.3836 84.3278 13.1849 86.8378 11.006H89.8826C86.9176 13.5839 83.9447 16.1738 80.9637 18.7716L81.5304 19.2824L90.3933 27.3193H87.4404C84.7348 24.8412 82.0212 22.391 79.2957 19.9727V27.3193H77.2087V4.71298L77.2007 4.70898Z" fill="white"/>
<path d="M93.1308 4.28993C93.5498 4.25002 93.9569 4.38171 94.3559 4.68099C94.735 5.00024 94.9505 5.3913 95.0104 5.85021C95.0503 6.28917 94.9106 6.70818 94.5914 7.11122C94.2921 7.49032 93.917 7.70182 93.4581 7.74172C93.0391 7.80158 92.624 7.67389 92.205 7.35066C91.8459 7.05137 91.6384 6.67227 91.5785 6.20937C91.5187 5.81031 91.6464 5.39131 91.9656 4.94836C92.2449 4.58921 92.632 4.36974 93.1308 4.28993ZM92.2649 11.006H94.324V27.3152H92.2649V11.006Z" fill="white"/>
<path d="M100.501 11.0059V4.94824H102.588V11.0059H105.901V12.8056H102.588V27.3191H100.501V12.8056H97.1892V11.0059H100.501Z" fill="white"/>
<path d="M139.972 25.2802C139.118 25.5994 138.3 25.779 137.525 25.8189H136.811C136.252 25.779 135.698 25.6872 135.139 25.5475C134.205 25.2882 133.387 24.8692 132.693 24.2865C131.22 23.0255 130.406 21.4174 130.247 19.458V18.7996C130.287 18.2808 130.374 17.762 130.514 17.2393C130.754 16.4013 131.22 15.5792 131.915 14.7811C132.629 14.0229 133.435 13.4523 134.333 13.0732C135.127 12.7539 135.945 12.5823 136.779 12.5624H137.525C138.579 12.6023 139.553 12.8417 140.45 13.2807C141.424 13.7396 142.27 14.4499 142.988 15.4076H145.283C145.095 15.0525 144.9 14.7253 144.696 14.418C144.01 13.3844 143.248 12.6342 142.51 12.1075C140.957 11.1697 139.325 10.6589 137.617 10.5791H136.632C135.099 10.6789 133.679 11.1098 132.366 11.868C131.412 12.4068 130.594 13.1171 129.92 13.995C128.806 15.5154 128.22 17.1555 128.16 18.9113V19.6615C128.22 20.7031 128.407 21.6009 128.726 22.3591C129.046 23.2171 129.552 24.0391 130.247 24.8173C131.161 25.795 132.078 26.4773 132.992 26.8564C134.205 27.3952 135.418 27.6865 136.632 27.7264H137.497C139.249 27.6466 140.818 27.1877 142.21 26.3457C143.104 25.8468 143.914 25.0607 144.656 24.0072C145.008 23.5084 145.283 22.9258 145.283 22.9258H142.988C142.115 24.0471 141.109 24.8253 139.976 25.2642L139.972 25.2802Z" fill="white"/>
<path d="M64.8899 26.3695C65.8956 27.2793 67.2563 27.7383 68.9363 27.7383C70.6163 27.7383 72.005 27.3033 73.0466 26.4413C74.0881 25.5794 74.5949 24.5538 74.5949 23.3048C74.5949 22.0558 74.2956 21.09 73.701 20.4236C73.0985 19.7492 72.3602 19.2783 71.5062 19.0349C70.6124 18.7795 69.7065 18.5481 68.8086 18.3525C67.8788 18.149 67.0688 17.8178 66.4103 17.3669C65.704 16.884 65.3449 16.1897 65.3449 15.3038C65.3449 14.4179 65.6561 13.7076 66.2707 13.1529C66.8772 12.6022 67.7112 12.3269 68.7488 12.3269C69.7863 12.3269 70.6283 12.6461 71.2269 13.2766C71.7736 13.8512 72.0888 14.5975 72.1647 15.5033H74.3475C74.2158 14.0228 73.701 12.8337 72.8151 11.9717C71.8774 11.0579 70.5565 10.595 68.8924 10.595C67.2284 10.595 65.8477 11.0698 64.8022 12.0116C63.7526 12.9574 63.2458 14.0787 63.2458 15.4514C63.2458 16.3693 63.4613 17.1354 63.8843 17.73C64.3113 18.3286 64.8461 18.7556 65.4805 18.995C66.1549 19.2504 66.9012 19.4938 67.7033 19.7213C68.5014 19.9448 69.2516 20.1443 69.934 20.3119C70.6602 20.4875 71.2748 20.8107 71.7616 21.2776C72.2684 21.7605 72.5238 22.4149 72.5238 23.221C72.5238 24.0271 72.2006 24.7134 71.5621 25.2402C70.9396 25.751 70.0776 26.0144 69.0042 26.0144C67.9307 26.0144 67.0568 25.7031 66.4303 25.0846C65.8557 24.5179 65.5244 23.7757 65.4406 22.8658H63.2618C63.3975 24.3423 63.9442 25.5235 64.8859 26.3775L64.8899 26.3695Z" fill="white"/>
<path d="M59.9536 27.3192H62.34L51.797 4.71289L41.2181 27.3192H43.6364L46.3619 21.509H57.2361L59.9536 27.3192ZM47.3875 19.3182L51.809 9.89657L56.2145 19.3182H47.3875Z" fill="white"/>
<path d="M121.651 23.4205C121.232 23.9592 120.845 24.3383 120.486 24.5618C119.352 25.32 118.127 25.743 116.815 25.8228H116.188C114.975 25.7629 113.842 25.332 112.788 24.5339C111.954 23.8355 111.336 23.0135 110.94 22.0757C110.561 21.118 110.382 20.1962 110.402 19.3183H124.959C124.959 17.3589 124.46 15.631 123.467 14.1306C122.653 13.0332 121.807 12.2311 120.929 11.7323C120.115 11.2534 119.297 10.9342 118.483 10.7745C118.064 10.6947 117.657 10.6349 117.257 10.595H115.917C115.498 10.6349 115.091 10.6947 114.696 10.7745C113.877 10.9342 113.063 11.2654 112.249 11.7642C111.455 12.2231 110.689 12.9454 109.951 13.9231C108.897 15.3836 108.331 17.0197 108.251 18.8394V19.5896C108.271 20.0286 108.331 20.5473 108.43 21.1499C108.65 22.0318 108.977 22.8499 109.416 23.6081C110.51 25.5275 111.982 26.7686 113.834 27.3272C114.548 27.5467 115.366 27.6864 116.28 27.7462H117.114C118.507 27.6864 119.76 27.3472 120.873 26.7286C121.847 26.2099 122.701 25.4477 123.439 24.4501C123.818 23.9512 124.145 23.4125 124.424 22.8299C124.704 22.2752 124.792 21.9001 124.792 21.9001H122.693C122.333 22.5187 121.986 23.0294 121.647 23.4285L121.651 23.4205ZM111.655 15.1162C112.233 14.2782 112.996 13.6278 113.953 13.1689C114.787 12.8097 115.566 12.6182 116.28 12.5982H116.906C118.139 12.678 119.253 13.0491 120.246 13.7076C120.685 13.967 121.072 14.3181 121.412 14.7571C122.026 15.5352 122.457 16.457 122.693 17.5145H110.581C110.841 16.6566 111.196 15.8545 111.655 15.1162Z" fill="white"/>
<path d="M150.503 11.0059V4.94824H152.59V11.0059H155.902V12.8056H152.59V27.3191H150.503V12.8056H147.19V11.0059H150.503Z" fill="white"/>
<path d="M24.003 8.92288C19.0427 12.0155 16.002 17.4466 16.002 23.3207V32.0001C25.9024 26.2856 32.0039 15.7187 32.0039 4.28589L24.003 8.92288Z" fill="url(#paint0_linear_1038_460)"/>
<path d="M7.51415 8.61943L0 4.28174C0 15.7146 6.09752 26.2775 15.998 31.9959V23.3165C15.998 17.2549 12.7657 11.6522 7.51415 8.61943Z" fill="white"/>
<path d="M24.4899 8.61953C24.3223 8.7153 24.1666 8.82305 24.003 8.92281L32.004 4.28582C22.1035 -1.42861 9.90451 -1.42861 0.00402832 4.28582L7.51819 8.62352C12.7697 11.6563 19.2383 11.6523 24.4899 8.62352V8.61953Z" fill="white"/>
<defs>
<linearGradient id="paint0_linear_1038_460" x1="30.6152" y1="16.4849" x2="16.8998" y2="19.9168" gradientUnits="userSpaceOnUse">
<stop stop-color="white"/>
<stop offset="1" stop-color="#C4C5C5"/>
</linearGradient>
</defs>
</svg>
